<svg id="Layer_1" data-name="Layer 1" xmlns="http://www.w3.org/2000/svg" viewBox="0 0 39.6 21.27"><defs><style>.cls-1{font-size:10.83px;font-family:GillSansMT-ExtraCondensedBold, Gill Sans MT Ext Condensed Bold;}.cls-1,.cls-3{fill:#06614b;}.cls-2{fill:#6dcdb6;letter-spacing:0em;}</style></defs><title>Untitled-5</title><text class="cls-1" transform="translate(0 9.72) scale(1.37 1)">Fitness <tspan class="cls-2" x="17.76" y="0">Carb</tspan></text><path class="cls-3" d="M64.46,21.43l-1.22,1.9a.74.74,0,0,0,.2,1l.76.53a.73.73,0,0,0,1-.23l3.09-5.25A.84.84,0,0,0,68,18.23l-.62-.33a.88.88,0,0,0-1.2.34l-.92,1.62s-5.39-4.32-14.49-4.14C42.69,16.26,38.55,20,38.55,20l-1.09-1.89a.65.65,0,0,0-.9-.23l-.86.53a.83.83,0,0,0-.28,1.15l3.06,4.9a.92.92,0,0,0,1.23.32l.53-.31a.78.78,0,0,0,.28-1.1L39.3,21.4a22.27,22.27,0,0,1,12-3.4A29.76,29.76,0,0,1,64.46,21.43Z" transform="translate(-32.24 -3.73)"/><path class="cls-3" d="M67.78,20.94l-1.4,2.28a.72.72,0,0,0,.23,1l.22.13a.72.72,0,0,0,1-.24l1.52-2.46a.72.72,0,0,0-.24-1l0,0A.92.92,0,0,0,67.78,20.94Z" transform="translate(-32.24 -3.73)"/><path class="cls-3" d="M35,20.66l-.39.23a.68.68,0,0,0-.23.91L36,24.38a.66.66,0,0,0,.92.21l.39-.26a.66.66,0,0,0,.21-.89l-1.56-2.56A.66.66,0,0,0,35,20.66Z" transform="translate(-32.24 -3.73)"/></svg>