<svg id="Layer_1" data-name="Layer 1" xmlns="http://www.w3.org/2000/svg" viewBox="0 0 369.93 407.52"><defs><style>.cls-1{font-size:101.15px;font-family:GillSansMT-ExtraCondensedBold, Gill Sans MT Ext Condensed Bold;}.cls-1,.cls-5{fill:#06614b;}.cls-2{fill:#6dcdb6;}.cls-3{fill:#ccc;}.cls-4{fill:#898989;}</style></defs><title>Untitled-3</title><text class="cls-1" transform="translate(0 384.31) scale(1.37 1)">Fitness <tspan class="cls-2" x="165.95" y="0">Carb</tspan></text><path class="cls-3" d="M212.64,251.71s20,69.67,102,71.67c77.33-4.33,92-73.33,92-73.33l11.11-4.55S393.5,204.69,300,206.69c-85.5,5.73-98.14,37.36-98.14,37.36S201,256.05,212.64,251.71Z" transform="translate(-133.07 -34)"/><path class="cls-3" d="M398.75,235.25s2.75-88.75-69.9-90.09c-44.57,2.52-46.52,52.13-44.86,65.8,0,0-52.74-38.38-81.32,14.82,0,0-1.93-25.32,18.25-56.43a48,48,0,0,1,32.17-21.41l1.69-.26c5.58-.77,14.92-18.66,18.94-22.73,7.51-7.61,16.35-11,26.91-13.25,82.1-17.42,123.54,59,107.62,128.05A75.72,75.72,0,0,0,398.75,235.25Z" transform="translate(-133.07 -34)"/><path class="cls-4" d="M400.89,236.61s.44-99.94-76-98.41c-44.57,2.53-46.53,52.13-44.86,65.8,0,0-48.75-31.42-77.33,21.78,0,0-5.92-32.28,14.26-63.39A48.09,48.09,0,0,1,249.09,141l1.7-.26c5.57-.76,14.92-18.66,18.93-22.73,7.52-7.61,16.35-11,26.92-13.25,82.09-17.42,130,68.91,114.08,138C410.72,242.69,404.59,237.87,400.89,236.61Z" transform="translate(-133.07 -34)"/><path class="cls-4" d="M212.64,255.44s20,69.67,102,71.67c77.33-4.33,92-73.33,92-73.33l16.69-4.7S393.5,208.42,300,210.42c-85.5,5.72-101,35.33-101,35.33S201,259.78,212.64,255.44Z" transform="translate(-133.07 -34)"/><path class="cls-2" d="M400.67,236.28S406,127.11,323.33,132.44c-45.33,2.67-48.66,54-45.33,68,0,0-48-41.33-75.33,25.34,0,0-9.64-35,10.89-67.81,7.34-11.74,19.08-20.21,32.71-22.59.57-.1,1.15-.19,1.73-.27,5.67-.81,15.17-19.69,19.25-24,7.65-8,16.63-11.62,27.38-14,83.5-18.37,132.22,72.71,116,145.55C410.67,242.69,404.44,237.6,400.67,236.28Z" transform="translate(-133.07 -34)"/><path class="cls-5" d="M213,255.44s20,69.67,102,71.67c77.33-4.33,92-73.33,92-73.33l20,13.33-11.4,17.73a6.91,6.91,0,0,0,1.86,9.41l7.14,5a6.85,6.85,0,0,0,9.81-2.14l28.83-49a7.85,7.85,0,0,0-3-10.85l-5.71-3.14a8.34,8.34,0,0,0-11.28,3.19l-8.6,15.17s-50.34-40.33-135.34-38.66c-75.66,5-114.33,39.66-114.33,39.66l-10.24-17.66a6,6,0,0,0-8.36-2.11l-8.08,5a7.73,7.73,0,0,0-2.53,10.69l28.55,45.85a8.53,8.53,0,0,0,11.45,2.91l5-2.82a7.37,7.37,0,0,0,2.61-10.34L192,266.78A93.91,93.91,0,0,1,213,255.44Z" transform="translate(-133.07 -34)"/><path class="cls-5" d="M251.28,131a.82.82,0,0,1-1.5.17C248,128,242.66,118.9,235.64,113.9c-8.62-6.13-14.31-.88-17.67-4.38s2.63-15.33,7.89-16.2,15.18,13.57,17.81,18.39,7.88,13.57,7.88,16.93A8.68,8.68,0,0,1,251.28,131Z" transform="translate(-133.07 -34)"/><path class="cls-2" d="M263.37,34s1.27,15.32-7.66,25.53S236.77,78.05,240,92.73s9.36,17.66,9.36,17.66.43-28.73,14.37-42.34c0,0-15.17,26-8,48.57,0,0,17.23-3.46,22.13-39.21A53.88,53.88,0,0,0,263.37,34Z" transform="translate(-133.07 -34)"/><path class="cls-5" d="M458,262.48l-13.08,21.31a6.71,6.71,0,0,0,2.23,9.24l2,1.26a6.72,6.72,0,0,0,9.22-2.21L472.62,269a6.7,6.7,0,0,0-2.23-9.26l-.34-.21A8.78,8.78,0,0,0,458,262.48Z" transform="translate(-133.07 -34)"/><path class="cls-5" d="M152.08,259.93l-3.61,2.17a6.16,6.16,0,0,0-2.11,8.47l14.5,24.06a6.17,6.17,0,0,0,8.66,2l3.65-2.38a6.19,6.19,0,0,0,1.89-8.38L160.52,262A6.16,6.16,0,0,0,152.08,259.93Z" transform="translate(-133.07 -34)"/></svg>